<?xml version="1.0" standalone="no"?><!DOCTYPE svg PUBLIC "-//W3C//DTD SVG 1.1//EN" "http://www.w3.org/Graphics/SVG/1.1/DTD/svg11.dtd"><svg t="1739460997907" class="icon" viewBox="0 0 1024 1024" version="1.1" xmlns="http://www.w3.org/2000/svg" p-id="16671" xmlns:xlink="http://www.w3.org/1999/xlink" width="200" height="200"><path d="M256 64c0-35.4-28.6-64-64-64S128 28.6 128 64v64H64C28.6 128 0 156.6 0 192s28.6 64 64 64h64v512c0 70.6 57.4 128 128 128h448v-128H256V64z m512 896c0 35.4 28.6 64 64 64s64-28.6 64-64v-64h64c35.4 0 64-28.6 64-64s-28.6-64-64-64h-64V256c0-70.6-57.4-128-128-128H320v128h448v704z" p-id="16672"></path></svg>