<?xml version="1.0" standalone="no"?><!DOCTYPE svg PUBLIC "-//W3C//DTD SVG 1.1//EN" "http://www.w3.org/Graphics/SVG/1.1/DTD/svg11.dtd"><svg t="1739461057290" class="icon" viewBox="0 0 1024 1024" version="1.1" xmlns="http://www.w3.org/2000/svg" p-id="23674" xmlns:xlink="http://www.w3.org/1999/xlink" width="200" height="200"><path d="M64 126.866v708.646l61.621 61.621h314.954l71.892-71.892V126.866h318.377v321.801c22.823 4.565 44.504 11.411 65.045 20.54V126.866l-61.621-61.621H125.621L64 126.866z m61.621 0h321.801v708.646H125.621V126.866z m667.566 386.846c27.387 0 53.063 5.706 77.027 17.117 23.964 11.411 43.363 27.387 58.198 47.928 14.835 20.54 24.534 43.363 29.099 68.468 4.565 25.105 2.853 49.639-5.135 73.603-7.988 23.964-20.54 45.075-37.658 63.333-17.117 18.258-37.658 31.952-61.621 41.081-23.964 9.129-49.069 11.982-75.315 8.559-26.246-3.423-49.639-11.982-70.18-25.676l-150.63 150.63-44.504-44.504 150.63-150.63c-25.105-38.799-32.522-80.45-22.252-124.954 10.27-44.504 34.805-78.168 73.603-100.991h3.423c22.822-15.976 47.927-23.964 75.315-23.964z m13.693 256.756c18.258-2.282 34.234-7.988 47.928-17.117 13.694-9.129 23.964-21.682 30.811-37.658s9.7-32.522 8.559-49.639c-1.141-17.117-6.847-33.093-17.117-47.928-10.27-14.835-24.534-25.676-42.793-32.522-18.258-6.847-36.516-8.559-54.775-5.135s-34.234 11.982-47.928 25.676c-13.694 13.694-22.823 30.24-27.387 49.639-4.565 19.399-2.853 37.658 5.135 54.775 7.988 17.117 20.54 31.952 37.658 44.504 17.117 12.552 37.086 17.687 59.909 15.405z" p-id="23675"></path></svg>