<?xml version="1.0" standalone="no"?><!DOCTYPE svg PUBLIC "-//W3C//DTD SVG 1.1//EN" "http://www.w3.org/Graphics/SVG/1.1/DTD/svg11.dtd"><svg t="1739461112573" class="icon" viewBox="0 0 1024 1024" version="1.1" xmlns="http://www.w3.org/2000/svg" p-id="32583" xmlns:xlink="http://www.w3.org/1999/xlink" width="200" height="200"><path d="M832 128a64 64 0 0 1 64 64v246.208a41.792 41.792 0 1 1-83.584 0V211.584H211.584V450.56c15.04 1.472 32.768 3.648 52.224 7.04 58.496 10.112 135.488 31.36 202.24 76.992 110.848 75.904 165.888 181.44 190.592 272.448 12.864 47.488-24.64 88.896-68.864 88.896H192a64 64 0 0 1-64-64V192a64 64 0 0 1 64-64h640zM211.584 533.12v279.68H573.44c-22.592-73.216-68.16-151.936-153.536-210.304-53.12-36.416-117.312-54.912-170.048-64a604.032 604.032 0 0 0-38.4-5.44z" p-id="32584"></path><path d="M974.592 696.32L876.8 598.656a32 32 0 0 0-45.312 0l-97.664 97.728a32 32 0 0 0 0 45.248l13.568 13.568a32 32 0 0 0 45.248 0l19.84-19.84v128.64a32 32 0 0 0 32 32h19.2a32 32 0 0 0 32-32v-128.768l19.968 19.968a32 32 0 0 0 45.248 0l13.632-13.568a32 32 0 0 0 0-45.248zM640 416a64 64 0 1 0 0-128 64 64 0 0 0 0 128z" p-id="32585"></path></svg>