<?xml version="1.0" standalone="no"?><!DOCTYPE svg PUBLIC "-//W3C//DTD SVG 1.1//EN" "http://www.w3.org/Graphics/SVG/1.1/DTD/svg11.dtd"><svg t="1740492026025" class="icon" viewBox="0 0 1024 1024" version="1.1" xmlns="http://www.w3.org/2000/svg" p-id="6890" id="mx_n_1740492026026" xmlns:xlink="http://www.w3.org/1999/xlink" width="200" height="200"><path d="M896 377.6c19.2 0 32-12.8 32-32V185.6c0-44.8-38.4-89.6-89.6-89.6H185.6c-44.8 0-89.6 38.4-89.6 89.6v659.2c0 44.8 38.4 89.6 89.6 89.6h659.2c44.8 0 89.6-38.4 89.6-89.6v-166.4c0-19.2-12.8-32-32-32s-32 12.8-32 32v166.4c0 12.8-12.8 25.6-25.6 25.6H185.6c-12.8 0-25.6-12.8-25.6-25.6V185.6c0-12.8 12.8-25.6 25.6-25.6h659.2c12.8 0 25.6 12.8 25.6 25.6v166.4c-6.4 12.8 6.4 25.6 25.6 25.6z" fill="#000000" p-id="6891"></path><path d="M505.6 736c-12.8 12.8-32 6.4-44.8-6.4L320 563.2c-6.4-12.8-6.4-25.6 0-38.4l134.4-166.4c12.8-12.8 32-12.8 44.8-6.4s19.2 32 6.4 44.8L416 512h377.6c19.2 0 32 12.8 32 32s-12.8 32-32 32H416L512 691.2c6.4 12.8 6.4 32-6.4 44.8z" fill="#000000" p-id="6892"></path></svg>